<svg width="32" height="32" viewBox="0 0 32 32" fill="none" xmlns="http://www.w3.org/2000/svg">
<path d="M2.67234 29.3334L4.47501 22.7094C3.28719 20.6732 2.66314 18.3574 2.66701 16.0001C2.66701 8.63608 8.63634 2.66675 16.0003 2.66675C23.3643 2.66675 29.3337 8.63608 29.3337 16.0001C29.3337 23.3641 23.3643 29.3334 16.0003 29.3334C13.644 29.3372 11.3292 28.7136 9.29368 27.5267L2.67234 29.3334ZM11.1883 9.74408C11.0162 9.75477 10.8479 9.80012 10.6937 9.87741C10.549 9.95932 10.417 10.0617 10.3017 10.1814C10.1417 10.3321 10.051 10.4627 9.95368 10.5894C9.46089 11.2307 9.19582 12.018 9.20034 12.8267C9.20301 13.4801 9.37368 14.1161 9.64034 14.7107C10.1857 15.9134 11.083 17.1867 12.2683 18.3667C12.5537 18.6507 12.8323 18.9361 13.1323 19.2014C14.6035 20.4967 16.3567 21.4308 18.2523 21.9294L19.011 22.0454C19.2577 22.0587 19.5043 22.0401 19.7523 22.0281C20.1407 22.008 20.5198 21.9029 20.863 21.7201C21.0376 21.6301 21.208 21.5323 21.3737 21.4267C21.3737 21.4267 21.431 21.3894 21.5403 21.3067C21.7203 21.1734 21.831 21.0787 21.9803 20.9227C22.091 20.8081 22.187 20.6734 22.2603 20.5201C22.3643 20.3027 22.4683 19.8881 22.511 19.5427C22.543 19.2787 22.5337 19.1347 22.5297 19.0454C22.5243 18.9027 22.4057 18.7547 22.2763 18.6921L21.5003 18.3441C21.5003 18.3441 20.3403 17.8387 19.6323 17.5161C19.5577 17.4835 19.4777 17.465 19.3963 17.4614C19.3051 17.452 19.2129 17.4623 19.126 17.4915C19.0391 17.5207 18.9594 17.5682 18.8923 17.6307V17.6281C18.8857 17.6281 18.7963 17.7041 17.8323 18.8721C17.777 18.9464 17.7008 19.0026 17.6134 19.0335C17.526 19.0644 17.4314 19.0685 17.3417 19.0454C17.2548 19.0222 17.1697 18.9928 17.087 18.9574C16.9217 18.8881 16.8643 18.8614 16.751 18.8121L16.7443 18.8094C15.9816 18.4764 15.2753 18.0265 14.651 17.4761C14.483 17.3294 14.327 17.1694 14.167 17.0147C13.6424 16.5124 13.1853 15.9441 12.807 15.3241L12.7283 15.1974C12.6718 15.1123 12.6262 15.0205 12.5923 14.9241C12.5417 14.7281 12.6737 14.5707 12.6737 14.5707C12.6737 14.5707 12.9977 14.2161 13.1483 14.0241C13.2738 13.8645 13.3908 13.6985 13.499 13.5267C13.6563 13.2734 13.7057 13.0134 13.623 12.8121C13.2497 11.9001 12.863 10.9921 12.4657 10.0907C12.387 9.91208 12.1537 9.78408 11.9417 9.75875C11.8697 9.75075 11.7977 9.74275 11.7257 9.73741C11.5466 9.72852 11.3672 9.7303 11.1883 9.74275V9.74408Z" fill="#B4C2BB"/>
</svg>
