<svg width="118" height="60" viewBox="0 0 118 60" fill="none" xmlns="http://www.w3.org/2000/svg">
<path d="M44.8297 53.6699L43.7515 59.91H43.2404L44.3228 53.6699H44.8297ZM46.9087 53.6699L46.8357 54.1242H42.1665L42.2438 53.6699H46.9087Z" fill="black"/>
<path d="M48.5872 56.0571L47.9214 59.91H47.4188L48.2221 55.2728H48.7117L48.5872 56.0571ZM50.3097 55.2385L50.2452 55.7056C50.1937 55.6971 50.1407 55.6899 50.0863 55.6842C50.0319 55.6785 49.9775 55.6756 49.9231 55.6756C49.6911 55.6728 49.4849 55.7156 49.3045 55.8042C49.127 55.8928 48.9709 56.0128 48.8363 56.1642C48.7046 56.3156 48.5943 56.4871 48.5056 56.6785C48.4168 56.8671 48.3481 57.0614 48.2994 57.2614L48.0975 57.3342C48.1404 57.0857 48.2049 56.8342 48.2908 56.5799C48.3796 56.3256 48.497 56.0928 48.643 55.8813C48.7919 55.6671 48.9738 55.4956 49.1885 55.3671C49.4062 55.2385 49.6639 55.177 49.9617 55.1828C50.0219 55.1828 50.0806 55.1885 50.1378 55.1999C50.1951 55.2085 50.2524 55.2213 50.3097 55.2385Z" fill="black"/>
<path d="M54.0671 59.0786L54.4666 56.6828C54.4981 56.4628 54.4781 56.2742 54.4065 56.1171C54.3378 55.9571 54.2261 55.8356 54.0714 55.7528C53.9197 55.6671 53.7321 55.6228 53.5087 55.6199C53.3111 55.6171 53.1164 55.6513 52.9246 55.7228C52.7327 55.7942 52.5652 55.8985 52.422 56.0356C52.2817 56.1728 52.1886 56.3442 52.1428 56.5499L51.6402 56.5456C51.6717 56.3256 51.749 56.1314 51.8722 55.9628C51.9953 55.7913 52.1471 55.6485 52.3275 55.5342C52.5108 55.4171 52.7083 55.3299 52.9203 55.2728C53.1322 55.2128 53.3412 55.1842 53.5474 55.187C53.8538 55.187 54.1201 55.2485 54.3463 55.3713C54.5726 55.4913 54.7415 55.6642 54.8532 55.8899C54.9678 56.1128 55.005 56.3814 54.9649 56.6956L54.5869 58.9371C54.5611 59.0886 54.5439 59.2428 54.5353 59.4C54.5268 59.5543 54.5382 59.7057 54.5697 59.8543L54.5654 59.91H54.0414C54.0213 59.7729 54.0142 59.6343 54.0199 59.4943C54.0285 59.3543 54.0442 59.2157 54.0671 59.0786ZM54.501 57.2099L54.4451 57.6042H53.4958C53.3183 57.6042 53.1307 57.62 52.9331 57.6514C52.7356 57.6828 52.5466 57.7371 52.3661 57.8142C52.1857 57.8914 52.0325 57.9985 51.9065 58.1357C51.7805 58.27 51.7003 58.4414 51.666 58.65C51.6373 58.83 51.6574 58.9871 51.7261 59.1214C51.7977 59.2528 51.9022 59.3557 52.0397 59.43C52.1771 59.5014 52.3318 59.5386 52.5036 59.5414C52.7556 59.5443 52.9947 59.4986 53.2209 59.4043C53.4472 59.3071 53.6491 59.1728 53.8266 59.0014C54.0041 58.83 54.143 58.63 54.2433 58.4014L54.4194 58.7014C54.342 58.8957 54.2332 59.0743 54.0929 59.2371C53.9555 59.3971 53.798 59.5343 53.6204 59.6486C53.4429 59.76 53.2524 59.8471 53.0491 59.91C52.8458 59.97 52.6396 60 52.4306 60C52.1757 59.9943 51.9466 59.9386 51.7433 59.8329C51.5428 59.7271 51.3868 59.5771 51.2751 59.3828C51.1634 59.1886 51.1219 58.96 51.1505 58.6971C51.182 58.4171 51.2708 58.1828 51.4168 57.9942C51.5658 57.8028 51.7505 57.65 51.971 57.5357C52.1915 57.4214 52.4291 57.3385 52.684 57.2871C52.9389 57.2357 53.1866 57.2099 53.4271 57.2099H54.501Z" fill="black"/>
<path d="M57.9363 56.2842L57.3092 59.91H56.8066L57.6099 55.2728H58.0909L57.9363 56.2842ZM57.6571 57.3042L57.4552 57.1757C57.5125 56.9242 57.5998 56.6799 57.7172 56.4428C57.8347 56.2028 57.9807 55.9885 58.1554 55.7999C58.3329 55.6085 58.5362 55.4585 58.7653 55.3499C58.9973 55.2385 59.255 55.1842 59.5385 55.187C59.7934 55.1899 60.0039 55.237 60.1699 55.3285C60.3389 55.4171 60.4692 55.5413 60.5608 55.7013C60.6525 55.8585 60.7097 56.0399 60.7327 56.2456C60.7584 56.4485 60.7556 56.6642 60.7241 56.8928L60.2129 59.91H59.706L60.2258 56.8842C60.2573 56.6614 60.2559 56.4556 60.2215 56.2671C60.19 56.0756 60.1098 55.9228 59.9809 55.8085C59.8521 55.6913 59.6588 55.6328 59.4011 55.6328C59.172 55.6299 58.9615 55.6771 58.7696 55.7742C58.5778 55.8685 58.4059 55.9971 58.2542 56.1599C58.1053 56.3199 57.9793 56.4999 57.8762 56.6999C57.7759 56.8971 57.7029 57.0985 57.6571 57.3042Z" fill="black"/>
<path d="M65.4867 58.7143C65.5211 58.5085 65.4853 58.3428 65.3793 58.2171C65.2733 58.0885 65.1345 57.99 64.9626 57.9214C64.7908 57.85 64.6233 57.7942 64.4601 57.7542C64.2883 57.7114 64.115 57.66 63.9403 57.6C63.7685 57.5371 63.6124 57.4585 63.4721 57.3642C63.3318 57.2671 63.223 57.1457 63.1457 56.9999C63.0683 56.8542 63.0397 56.6756 63.0598 56.4642C63.0798 56.2499 63.1442 56.0628 63.2531 55.9028C63.3647 55.7428 63.5036 55.6099 63.6697 55.5042C63.8387 55.3956 64.0205 55.3156 64.2152 55.2642C64.4128 55.2128 64.609 55.187 64.8037 55.187C65.0872 55.1899 65.3449 55.2442 65.5769 55.3499C65.8117 55.4556 65.995 55.6113 66.1267 55.8171C66.2613 56.0199 66.3186 56.2728 66.2985 56.5756L65.8003 56.5714C65.8174 56.3685 65.7802 56.1985 65.6886 56.0614C65.5998 55.9213 65.4752 55.8156 65.3149 55.7442C65.1574 55.6699 64.9827 55.6313 64.7908 55.6285C64.6133 55.6285 64.4357 55.6571 64.2582 55.7142C64.0835 55.7713 63.9317 55.8599 63.8029 55.9799C63.674 56.0999 63.5938 56.2556 63.5623 56.4471C63.5366 56.5985 63.5523 56.7257 63.6096 56.8285C63.6697 56.9285 63.7542 57.0099 63.863 57.0728C63.9747 57.1357 64.095 57.1871 64.2238 57.2271C64.3527 57.2671 64.4744 57.3028 64.5889 57.3342C64.8238 57.3971 65.0543 57.4785 65.2805 57.5785C65.5067 57.6785 65.6871 57.8171 65.8217 57.9942C65.9592 58.1685 66.0136 58.3985 65.985 58.6843C65.9649 58.9128 65.8976 59.11 65.7831 59.2757C65.6685 59.4414 65.5239 59.5786 65.3492 59.6871C65.1746 59.7929 64.9841 59.87 64.7779 59.9186C64.5718 59.97 64.367 59.9957 64.1637 59.9957C63.8831 59.9929 63.6167 59.94 63.3647 59.8371C63.1156 59.7343 62.9151 59.58 62.7634 59.3743C62.6116 59.1686 62.5457 58.9114 62.5658 58.6028L63.0683 58.6071C63.0626 58.8243 63.1099 59.0028 63.2101 59.1428C63.3103 59.2828 63.4449 59.3857 63.6139 59.4514C63.7857 59.5171 63.9718 59.5514 64.1723 59.5543C64.3527 59.5543 64.5374 59.5257 64.7264 59.4686C64.9154 59.4114 65.0801 59.3214 65.2204 59.1986C65.3636 59.0757 65.4523 58.9143 65.4867 58.7143Z" fill="black"/>
<path d="M70.4426 55.2728L70.3739 55.6928H68.1059L68.1789 55.2728H70.4426ZM69.2141 54.0813H69.7167L68.9091 58.7871C68.8919 58.91 68.8877 59.0286 68.8962 59.1428C68.9077 59.2571 68.9464 59.3514 69.0122 59.4257C69.0781 59.4971 69.1855 59.5343 69.3344 59.5371C69.406 59.5371 69.4761 59.5328 69.5449 59.5243C69.6164 59.5128 69.6866 59.5028 69.7553 59.4943L69.7339 59.9314C69.648 59.9543 69.562 59.97 69.4761 59.9786C69.3902 59.99 69.3029 59.9943 69.2141 59.9914C68.9736 59.9886 68.7917 59.93 68.6686 59.8157C68.5454 59.7014 68.4653 59.5529 68.428 59.37C68.3908 59.1843 68.3865 58.9871 68.4152 58.7785L69.2141 54.0813Z" fill="black"/>
<path d="M73.5515 59.9957C73.2365 59.9929 72.9644 59.9271 72.7354 59.7986C72.5063 59.67 72.3201 59.4986 72.1769 59.2843C72.0366 59.0671 71.9378 58.8243 71.8806 58.5557C71.8261 58.2871 71.8147 58.0114 71.8462 57.7285L71.872 57.54C71.9092 57.2542 71.9879 56.9714 72.1082 56.6914C72.2285 56.4114 72.3846 56.1585 72.5764 55.9328C72.7711 55.7042 72.9988 55.5228 73.2594 55.3885C73.52 55.2513 73.8092 55.1842 74.1271 55.187C74.4278 55.1899 74.6798 55.2528 74.8831 55.3756C75.0893 55.4956 75.2525 55.6571 75.3728 55.8599C75.493 56.0628 75.5718 56.2899 75.609 56.5414C75.6491 56.7928 75.6534 57.0499 75.6219 57.3128L75.5789 57.6257H72.1598L72.2242 57.1885H75.1279L75.1408 57.1285C75.178 56.8857 75.1651 56.6499 75.1021 56.4214C75.042 56.1928 74.9303 56.0042 74.7671 55.8556C74.6039 55.7071 74.3848 55.6313 74.1099 55.6285C73.8522 55.6228 73.6231 55.6771 73.4226 55.7913C73.2222 55.9028 73.0489 56.0542 72.9029 56.2456C72.7597 56.4342 72.6437 56.6428 72.5549 56.8714C72.4662 57.0971 72.4046 57.3199 72.3702 57.54L72.3488 57.7242C72.3201 57.9385 72.3216 58.1528 72.3531 58.3671C72.3874 58.5814 72.4533 58.7785 72.5506 58.9586C72.6509 59.1357 72.7855 59.28 72.9544 59.3914C73.1262 59.5 73.3353 59.5557 73.5816 59.5586C73.8565 59.5643 74.1042 59.51 74.3247 59.3957C74.548 59.2786 74.7528 59.1243 74.9389 58.9328L75.2396 59.1814C75.1021 59.3586 74.9446 59.5086 74.7671 59.6314C74.5924 59.7543 74.402 59.8457 74.1958 59.9057C73.9896 59.9657 73.7749 59.9957 73.5515 59.9957Z" fill="black"/>
<path d="M78.9069 53.327L77.7686 59.91H77.266L78.4043 53.327H78.9069Z" fill="black"/>
<path d="M81.9943 59.9957C81.6793 59.9929 81.4072 59.9271 81.1781 59.7986C80.9491 59.67 80.7629 59.4986 80.6197 59.2843C80.4794 59.0671 80.3806 58.8243 80.3234 58.5557C80.2689 58.2871 80.2575 58.0114 80.289 57.7285L80.3148 57.54C80.352 57.2542 80.4307 56.9714 80.551 56.6914C80.6713 56.4114 80.8274 56.1585 81.0192 55.9328C81.2139 55.7042 81.4416 55.5228 81.7022 55.3885C81.9628 55.2513 82.252 55.1842 82.5699 55.187C82.8706 55.1899 83.1226 55.2528 83.3259 55.3756C83.5321 55.4956 83.6953 55.6571 83.8156 55.8599C83.9358 56.0628 84.0146 56.2899 84.0518 56.5414C84.0919 56.7928 84.0962 57.0499 84.0647 57.3128L84.0217 57.6257H80.6026L80.667 57.1885H83.5707L83.5836 57.1285C83.6208 56.8857 83.6079 56.6499 83.5449 56.4214C83.4848 56.1928 83.3731 56.0042 83.2099 55.8556C83.0467 55.7071 82.8276 55.6313 82.5527 55.6285C82.295 55.6228 82.0659 55.6771 81.8654 55.7913C81.665 55.9028 81.4917 56.0542 81.3457 56.2456C81.2025 56.4342 81.0865 56.6428 80.9977 56.8714C80.909 57.0971 80.8474 57.3199 80.813 57.54L80.7916 57.7242C80.7629 57.9385 80.7644 58.1528 80.7959 58.3671C80.8302 58.5814 80.8961 58.7785 80.9934 58.9586C81.0937 59.1357 81.2283 59.28 81.3972 59.3914C81.569 59.5 81.7781 59.5557 82.0243 59.5586C82.2993 59.5643 82.547 59.51 82.7675 59.3957C82.9908 59.2786 83.1956 59.1243 83.3817 58.9328L83.6824 59.1814C83.5449 59.3586 83.3874 59.5086 83.2099 59.6314C83.0352 59.7543 82.8448 59.8457 82.6386 59.9057C82.4324 59.9657 82.2176 59.9957 81.9943 59.9957Z" fill="black"/>
<path d="M87.4012 59.5586C87.6303 59.5586 87.8422 59.5143 88.037 59.4257C88.2317 59.3371 88.3963 59.2114 88.5309 59.0486C88.6684 58.8857 88.7672 58.6957 88.8273 58.4785H89.3127C89.2554 58.7814 89.1323 59.0471 88.9433 59.2757C88.7543 59.5043 88.5238 59.6829 88.2517 59.8114C87.9825 59.9371 87.6947 59.9986 87.3883 59.9957C87.0619 59.9929 86.7884 59.9243 86.5679 59.79C86.3474 59.6557 86.1742 59.4786 86.0482 59.2586C85.9222 59.0357 85.8377 58.7885 85.7947 58.5171C85.7546 58.2428 85.7532 57.9657 85.7904 57.6857L85.8119 57.5057C85.852 57.2085 85.9293 56.9214 86.0439 56.6442C86.1584 56.3642 86.3087 56.1142 86.4949 55.8942C86.6839 55.6742 86.9087 55.5013 87.1693 55.3756C87.4299 55.247 87.7234 55.1842 88.0498 55.187C88.3734 55.1899 88.6512 55.2642 88.8832 55.4099C89.1151 55.5528 89.2912 55.7485 89.4115 55.9971C89.5346 56.2428 89.5905 56.5228 89.579 56.8371L89.1022 56.8328C89.1108 56.6099 89.075 56.4085 88.9948 56.2285C88.9175 56.0456 88.7972 55.9013 88.634 55.7956C88.4708 55.6871 88.2718 55.6299 88.037 55.6242C87.7706 55.6213 87.5372 55.6742 87.3368 55.7828C87.1392 55.8885 86.9702 56.0328 86.8299 56.2156C86.6896 56.3985 86.5765 56.6014 86.4906 56.8242C86.4047 57.0471 86.3445 57.2742 86.3102 57.5057L86.2844 57.6857C86.2586 57.8971 86.2529 58.1128 86.2672 58.3328C86.2844 58.55 86.3317 58.7514 86.409 58.9371C86.4892 59.12 86.6094 59.2686 86.7698 59.3828C86.9302 59.4943 87.1406 59.5529 87.4012 59.5586Z" fill="black"/>
<path d="M91.2231 57.6771L91.2446 57.5357C91.2876 57.2328 91.3706 56.9399 91.4938 56.6571C91.6169 56.3742 91.7773 56.1228 91.9749 55.9028C92.1753 55.6799 92.4101 55.5042 92.6793 55.3756C92.9485 55.247 93.2477 55.1842 93.5771 55.187C93.9035 55.1899 94.1813 55.2585 94.4104 55.3928C94.6395 55.5242 94.8227 55.7013 94.9602 55.9242C95.1005 56.1471 95.1964 56.3971 95.248 56.6742C95.2995 56.9485 95.3081 57.2299 95.2738 57.5185L95.2566 57.66C95.2136 57.9628 95.1291 58.2543 95.0031 58.5343C94.88 58.8143 94.7182 59.0657 94.5178 59.2886C94.3202 59.5086 94.0868 59.6829 93.8176 59.8114C93.5484 59.9371 93.2492 59.9986 92.9199 59.9957C92.5963 59.9929 92.3185 59.9257 92.0865 59.7943C91.8574 59.66 91.6742 59.4828 91.5367 59.2628C91.3993 59.04 91.3048 58.7914 91.2532 58.5171C91.2017 58.2428 91.1916 57.9628 91.2231 57.6771ZM91.7472 57.5357L91.73 57.6771C91.7014 57.8914 91.6999 58.1085 91.7257 58.3285C91.7515 58.5485 91.8102 58.7514 91.9018 58.9371C91.9963 59.12 92.1281 59.2686 92.297 59.3828C92.466 59.4971 92.6779 59.5557 92.9327 59.5586C93.1933 59.5614 93.4281 59.5086 93.6372 59.4C93.8462 59.2914 94.0266 59.1457 94.1784 58.9628C94.3331 58.7771 94.4576 58.5714 94.5521 58.3457C94.6466 58.1171 94.7125 57.8885 94.7497 57.66L94.7669 57.5185C94.7955 57.3071 94.7955 57.0914 94.7669 56.8714C94.7411 56.6485 94.6824 56.4442 94.5908 56.2585C94.4991 56.0728 94.3688 55.9228 94.1999 55.8085C94.0309 55.6913 93.819 55.6313 93.5642 55.6285C93.3036 55.6228 93.0688 55.6756 92.8597 55.7871C92.6507 55.8956 92.4703 56.0428 92.3185 56.2285C92.1667 56.4142 92.0421 56.6214 91.9448 56.8499C91.8503 57.0757 91.7844 57.3042 91.7472 57.5357Z" fill="black"/>
<path d="M98.0562 56.2542L97.4205 59.91H96.9179L97.7168 55.2728H98.2022L98.0562 56.2542ZM97.7856 57.3042L97.5665 57.1757C97.6238 56.9185 97.7097 56.6714 97.8242 56.4342C97.9388 56.1942 98.082 55.9799 98.2538 55.7913C98.4285 55.6028 98.6303 55.4542 98.8594 55.3456C99.0914 55.237 99.352 55.1842 99.6412 55.187C99.8875 55.1899 100.094 55.2342 100.26 55.3199C100.429 55.4028 100.562 55.5199 100.659 55.6713C100.757 55.8199 100.82 55.9928 100.848 56.1899C100.88 56.3871 100.881 56.5985 100.853 56.8242L100.328 59.91H99.8259L100.35 56.8371C100.384 56.6114 100.38 56.4085 100.337 56.2285C100.294 56.0456 100.204 55.9013 100.066 55.7956C99.929 55.6871 99.7343 55.6313 99.4823 55.6285C99.2446 55.6285 99.0312 55.6756 98.8422 55.7699C98.6532 55.8642 98.4886 55.9914 98.3483 56.1514C98.2079 56.3114 98.0905 56.4914 97.996 56.6914C97.9044 56.8914 97.8342 57.0957 97.7856 57.3042ZM100.857 56.9014L100.509 56.9057C100.563 56.6685 100.651 56.4456 100.771 56.2371C100.891 56.0256 101.04 55.8413 101.218 55.6842C101.395 55.5271 101.594 55.4042 101.815 55.3156C102.038 55.227 102.279 55.1842 102.536 55.187C102.794 55.187 103.009 55.2328 103.181 55.3242C103.352 55.4128 103.486 55.5356 103.58 55.6928C103.677 55.8471 103.74 56.0271 103.769 56.2328C103.798 56.4385 103.796 56.6571 103.765 56.8885L103.249 59.91H102.743L103.258 56.8799C103.292 56.6514 103.291 56.4428 103.254 56.2542C103.216 56.0628 103.129 55.9113 102.992 55.7999C102.857 55.6856 102.659 55.6299 102.399 55.6328C102.21 55.6328 102.031 55.6656 101.862 55.7313C101.696 55.7942 101.546 55.8842 101.411 56.0014C101.276 56.1156 101.16 56.2499 101.063 56.4042C100.968 56.5556 100.9 56.7214 100.857 56.9014Z" fill="black"/>
<path d="M8.56328 0L0 14.7995H14.8838L17.6363 0H8.56328Z" fill="#1AA656"/>
<path d="M17.6363 0L14.8838 14.7995H29.9205L32.5201 0H17.6363Z" fill="#168E4A"/>
<path d="M29.9205 14.7995H14.8838L9.63369 44.7545H24.5685L29.9205 14.7995Z" fill="#1AA656"/>
<path d="M32.5201 0L29.9205 14.7995H44.8043L47.5568 0H32.5201Z" fill="#5BB250"/>
<path d="M47.5568 0L44.8043 14.7995H59.7901L62.3896 0H47.5568Z" fill="#1AA656"/>
<path d="M59.7901 14.7995H44.8043L39.5542 44.7545H54.438L59.7901 14.7995Z" fill="#5BB250"/>
<path d="M62.3896 0L59.7901 14.7995H74.7758L75.7686 9.25604L77.4263 0H62.3896Z" fill="#8FC049"/>
<path d="M75.7686 9.25604L74.7758 14.7995H89.7106L92.3101 0H87.5698C80.5968 0 76.7969 6.1707 75.7686 9.25604Z" fill="#5BB250"/>
<path d="M92.3101 0L89.7106 14.7995H109.437L118 0H92.3101Z" fill="#BED13D"/>
<path d="M89.7106 14.7995H74.7758L71.2587 35.1425C70.9189 38.3465 72.2272 44.7545 80.1788 44.7545H104.085L112.699 29.8533H87.06L89.7106 14.7995Z" fill="#8FC049"/>
</svg>
