<svg width="272" height="280" viewBox="0 0 272 280" fill="none" xmlns="http://www.w3.org/2000/svg">
<g clip-path="url(#clip0_30_143)">
<path d="M244.569 -39.1618L245.249 -38.4828L196.335 14.145L56.3872 14.145L4.75604 65.7541L4.75606 275.926L3.39726 275.926L3.39724 65.075L55.7078 12.7868L195.656 12.7868L244.569 -39.1618Z" fill="#DFE2E5"/>
<path d="M4.41564 118.042L28.8726 142.149L28.8726 228.73L27.514 228.73L27.514 142.828L3.73645 118.722L4.41564 118.042Z" fill="#DFE2E5"/>
<path d="M153.874 13.1265L154.553 13.8056L127.039 41.3078L67.2558 41.3078L38.3831 70.1682L37.7039 69.1496L66.9162 40.2892L126.7 40.2892L153.874 13.1265Z" fill="#DFE2E5"/>
<path d="M38.0439 65.754C40.082 65.754 42.1201 67.4517 42.1201 69.8284C42.1201 71.8656 40.4217 73.9028 38.0439 73.9028C36.0059 73.9028 33.9677 72.2052 33.9677 69.8284C33.9677 67.4517 36.0059 65.754 38.0439 65.754Z" fill="#DFE2E5"/>
<path d="M78.4665 92.5772C80.5046 92.5772 82.5425 94.2749 82.5425 96.6517C82.5425 99.0284 80.8443 100.726 78.4665 100.726C76.0888 100.726 74.3903 99.0284 74.3903 96.6517C74.3903 94.2749 76.0888 92.5772 78.4665 92.5772Z" fill="#DFE2E5"/>
<path d="M46.5356 131.963C48.5737 131.963 50.6118 133.661 50.6118 136.038C50.6118 138.075 48.9134 140.112 46.5356 140.112C44.1579 140.112 42.4594 138.414 42.4594 136.038C42.4594 133.661 44.1579 131.963 46.5356 131.963Z" fill="#DFE2E5"/>
<path d="M62.1587 231.447C64.1967 231.447 66.2349 233.144 66.2349 235.521C66.2349 237.558 64.5364 239.595 62.1587 239.595C59.7809 239.595 58.0827 237.898 58.0827 235.521C58.0827 233.484 60.1206 231.447 62.1587 231.447Z" fill="#DFE2E5"/>
<path d="M28.1938 224.656C30.2319 224.656 32.27 226.354 32.27 228.73C32.27 230.767 30.5716 232.805 28.1938 232.805C25.8161 232.805 24.1179 231.107 24.1179 228.73C24.1179 226.693 26.1558 224.656 28.1938 224.656Z" fill="#DFE2E5"/>
<path d="M4.07616 271.851C6.11423 271.851 8.15234 273.549 8.15234 275.926C8.15234 277.963 6.45391 280 4.07616 280C1.69841 280 -2.87586e-05 278.302 -2.89664e-05 275.926C-2.91445e-05 273.888 2.03808 271.851 4.07616 271.851Z" fill="#DFE2E5"/>
<path d="M194.634 105.14C196.672 105.14 198.71 106.838 198.71 109.214C198.71 111.591 197.012 113.289 194.634 113.289C192.596 113.289 190.558 111.591 190.558 109.214C190.558 106.838 192.257 105.14 194.634 105.14Z" fill="#DFE2E5"/>
<path d="M270.383 -41.5384L271.742 -41.5384L271.742 -18.4501L271.403 -18.1105L215.695 38.2521L215.695 118.722L169.499 164.898L78.8048 164.898L62.8398 180.856L62.8398 235.521L61.4812 235.521L61.4812 180.517L78.4652 163.54L169.159 163.54L214.676 118.043L214.676 37.9126L214.676 37.573L270.383 -18.7896L270.383 -41.5384Z" fill="#DFE2E5"/>
<path d="M214.676 56.5866L215.695 57.6052L194.975 77.9773L194.975 109.214L193.956 109.214L193.956 77.6377L214.676 56.5866Z" fill="#DFE2E5"/>
<path d="M262.232 -31.6921L262.911 -30.6735L135.192 96.9912L79.1448 96.9912L79.1448 95.9726L134.513 95.9726L262.232 -31.6921Z" fill="#DFE2E5"/>
<path d="M157.951 72.5448L159.31 72.5448L159.31 113.289L136.211 136.377L46.5362 136.377L46.5362 135.359L135.872 135.359L157.951 112.949L157.951 72.5448Z" fill="#DFE2E5"/>
</g>
<defs>
<clipPath id="clip0_30_143">
<rect width="272" height="280" fill="white" transform="matrix(1 -8.74228e-08 -8.74228e-08 -1 0 280)"/>
</clipPath>
</defs>
</svg>
